<svg xmlns="http://www.w3.org/2000/svg" viewBox="0 0 1403.28 460">
<defs>
<style>.cls-1{fill:#32AEF9;}</style></defs>
<title>Logo</title>
<g id="Layer_2" data-name="Layer 2">
<g id="Layer_3" data-name="Layer 3">
<path class="cls-1" d="M252.69,267.27c-.32-77.1-107.93-49.09-107.93-80.47,0-5,7.8-16.16,29.79-16.16,30.86,0,30.66,18,49.82,18,6.92,0,19.58-2.65,19.58-20.22,0-19.86-29.34-36.83-69.43-36.83-38.49,0-71.05,21.1-71.05,55.21,0,73.55,108.66,41.47,109.25,80.83-.29,11.65-14.18,19.73-35.22,19.73-32.65,0-38.59-20.1-58.86-20.1-7.32,0-20.71,2.81-20.71,21.39,0,21,37.19,40.08,79.6,40.08,47.44,0,75-25.17,75.16-61.07h0v-.34Z"/>
<path class="cls-1" d="M860.11,131.57h-6.2a17.05,17.05,0,0,0-17,17V361.25a17.05,17.05,0,0,0,17,17h6.2a17.05,17.05,0,0,0,17-17v-52a93.75,93.75,0,0,0,55.58,18.22c52.87,0,95.72-43.93,95.72-98.11s-42.85-98.1-95.72-98.1a93.75,93.75,0,0,0-55.58,18.22v-.94A17.05,17.05,0,0,0,860.11,131.57Zm72.58,39.93c31.2,0,56.5,25.92,56.5,57.9s-25.3,57.91-56.5,57.91c-27.73,0-50.78-20.47-55.58-47.47V219C881.91,192,905,171.5,932.69,171.5Z"/>
<rect class="cls-1" x="324.66" y="131.57" width="40.22" height="197.1" rx="17.01" ry="17.01"/>
<rect class="cls-1" x="324.66" y="77.16" width="40.22" height="48.74" rx="17.01" ry="17.01"/>
<rect class="cls-1" x="1103.92" y="81.81" width="40.22" height="246.69" rx="17.01" ry="17.01"/>
<path class="cls-1" d="M1403.28,23.21V17a17.05,17.05,0,0,0-17-17H90.68l-.37,0-.14,0H72.9A81.47,81.47,0,0,0,.14,71.77l-.06.5c0,.22-.06.44-.08.66V387a81.49,81.49,0,0,0,72.91,73H1327.18a16.89,16.89,0,0,0,4.58-.65,81.36,81.36,0,0,0,67.83-69.86,17,17,0,0,0,.24-1.9l.06-.49V148.58a17.05,17.05,0,0,0-17-17h-6.2a17.06,17.06,0,0,0-17,17V238.4h0c0,.26,0,3.66,0,3.91,0,24.38-18.94,44.14-42.31,44.14S1275,266.69,1275,242.31c0-.25,0-3.65,0-3.91h0V148.58a17.05,17.05,0,0,0-17-17h-6.21a17.05,17.05,0,0,0-17,17v90.34c0,.09,0,.18,0,.27,0,1.09,0,2.94,0,3.12,0,47.55,37,86.09,82.53,86.09a79.6,79.6,0,0,0,42.31-12.17v57.42c0,.18,0,.35,0,.53s0,.29,0,.44v6.68a41.76,41.76,0,0,1-38.44,38.48H78.67a41.76,41.76,0,0,1-38.45-38.59v-6.4l0-.61c0-.18,0-.35,0-.53V332h0V128h0V86.35c0-.18,0-.35,0-.53s0-.33,0-.49V78.74A41.81,41.81,0,0,1,85.49,40.22H1386.27A17.06,17.06,0,0,0,1403.28,23.21Z"/>
<path class="cls-1" d="M669.16,131.3c-25.17,0-47.69,11.77-62.83,30.3-15.14-18.53-37.66-30.3-62.82-30.3a79.65,79.65,0,0,0-43,12.59,17.07,17.07,0,0,0-16.34-12.32H478a17.06,17.06,0,0,0-17,17V311.67a17.07,17.07,0,0,0,17,17h6.2a17.06,17.06,0,0,0,17-17V221.31h0c0-.26,0-3.66,0-3.92,0-24.38,18.95-44.14,42.32-44.14,22.92,0,41.57,19,42.28,42.75v95.67a17.06,17.06,0,0,0,17,17h7.06a17.06,17.06,0,0,0,17-17V221.31h0v-4.52c.31-24.1,19.12-43.54,42.3-43.54,23.37,0,42.31,19.76,42.31,44.14,0,.26,0,3.66,0,3.92h0v90.36a17.07,17.07,0,0,0,17,17h6.2a17.06,17.06,0,0,0,17-17v-91c0-.09,0-.17,0-.26,0-1.1,0-2.87,0-3.06C751.69,169.84,714.74,131.3,669.16,131.3Z"/>
</g>
</g>
</svg>